PathFileType	4	(X/Y/Z)	D:\luciana\demolition.trc
DataRate	CameraRate	NumFrames	NumMarkers	Units	OrigDataRate	OrigDataStartFrame	OrigNumFrames
250.00	250.00	12	18	mm	250.00	898	1806
Frame#	Time	pelvisR			Trunk1			Trunk2			Trunk3			C7			shoulder			upperArm1			upperArm2			upperArm3			elbow			forearm1			forearm2			forearm3			wrist1			wrist2			wrist3			Object			Hand			
		X1	Y1	Z1	X2	Y2	Z2	X3	Y3	Z3	X4	Y4	Z4	X5	Y5	Z5	X6	Y6	Z6	X7	Y7	Z7	X8	Y8	Z8	X9	Y9	Z9	X10	Y10	Z10	X11	Y11	Z11	X12	Y12	Z12	X13	Y13	Z13	X14	Y14	Z14	X15	Y15	Z15	X16	Y16	Z16	X17	Y17	Z17	X18	Y18	Z18	

897	3.588000	1705.966830	656.327248	693.461061	1480.831146	877.592802	618.691683	1543.526649	825.390458	612.543344	1456.884742	783.945024	615.730882	1547.087669	1136.683464	800.445139	1715.219975	1069.576383	732.858777	1762.847781	959.607184	624.887407	1832.075357	930.379391	660.972953	1803.887606	886.158526	715.926290	1810.962677	814.689159	590.642691	1856.671810	771.717191	526.798248	1781.155586	740.686834	528.548360	1845.132828	844.796240	518.188417	1864.565969	774.370074	380.973995	1788.821816	747.786522	372.164011	1857.036352	846.845210	394.613206	1833.790541	823.266029	261.138082	1833.199739	776.924789	274.539948	
898	3.592000	1705.964446	656.331718	693.450212	1480.783224	877.582192	618.687749	1543.493271	825.391710	612.538040	1456.838489	783.905864	615.771711	1547.098398	1136.675715	800.428450	1715.166092	1069.581389	732.718945	1762.509346	959.696054	624.537051	1831.789494	930.446327	660.396814	1803.744197	886.195242	715.393841	1810.460210	814.884305	589.952230	1855.969071	771.906614	525.993347	1780.503750	740.822613	527.944505	1844.406366	844.985127	517.404258	1863.468170	774.559855	380.126923	1787.667155	747.940421	371.470749	1855.976343	847.021699	393.763840	1832.309127	823.412120	260.359108	1831.860423	777.082920	273.787618	
899	3.596000	1705.961704	656.325340	693.449199	1480.729461	877.568841	618.716836	1543.452144	825.364947	612.544060	1456.780434	783.879638	615.795434	1547.125697	1136.666775	800.399363	1715.111732	1069.586992	732.574582	1762.186527	959.795654	624.176145	1831.494331	930.512905	659.817159	1803.614616	886.237264	714.866757	1809.968114	815.072060	589.315832	1855.299234	772.106588	525.204241	1779.833436	740.961552	527.333677	1843.689919	845.162868	516.636372	1862.357974	774.752200	379.302919	1786.482930	748.056293	370.801508	1854.927540	847.209275	392.936051	1830.776453	823.555827	259.548694	1830.361485	777.231634	272.991717	
900	3.600000	1705.965519	656.338811	693.438649	1480.672240	877.545536	618.746161	1543.417573	825.364232	612.540245	1456.746817	783.855498	615.816772	1547.169447	1136.662245	800.384164	1715.038419	1069.596529	732.406139	1761.853933	959.895909	623.795033	1831.210375	930.589318	659.237027	1803.479671	886.294723	714.321017	1809.483051	815.249801	588.675022	1854.642749	772.319913	524.392843	1779.188633	741.113663	526.742280	1842.966080	845.345378	515.836775	1861.242533	774.933696	378.472805	1785.337448	748.172045	370.186895	1853.876472	847.389042	392.106742	1829.276323	823.706627	258.765489	1828.976989	777.385473	272.254884	
901	3.604000	1705.971718	656.338632	693.422675	1480.631232	877.507389	618.733466	1543.389797	825.363219	612.528086	1456.704617	783.828855	615.840018	1547.195077	1136.668921	800.379694	1714.954376	1069.588900	732.228696	1761.536241	959.994137	623.437405	1830.936551	930.681586	658.660591	1803.342938	886.351585	713.760018	1809.003234	815.414667	587.993205	1853.962064	772.516906	523.589134	1778.577328	741.273582	526.153266	1842.231750	845.536232	515.041113	1860.150456	775.147021	377.641082	1784.207225	748.322964	369.560003	1852.797389	847.560048	391.280949	1827.780247	823.865592	257.992506	1827.576876	777.531981	271.554202	
902	3.608000	1705.975890	656.340420	693.409204	1480.612874	877.473295	618.732512	1543.362260	825.351357	612.524390	1456.664920	783.801675	615.876079	1547.201395	1136.665821	800.355017	1714.871407	1069.581270	732.065439	1761.212230	960.100591	623.088002	1830.663681	930.786848	658.099830	1803.199291	886.404991	713.219285	1808.497071	815.555394	587.295651	1853.285193	772.719026	522.772312	1777.944803	741.436720	525.540352	1841.513395	845.726669	514.284611	1859.070301	775.342941	376.786172	1783.093929	748.490989	368.884712	1851.730824	847.747564	390.475959	1826.243162	824.018776	257.202923	1826.070309	777.659893	270.791471	
903	3.612000	1705.957890	656.347036	693.401217	1480.592489	877.477527	618.713319	1543.329358	825.334191	612.525105	1456.622720	783.766150	615.918040	1547.201276	1136.651754	800.321043	1714.796305	1069.583654	731.927574	1760.888100	960.216880	622.765303	1830.376148	930.885792	657.531381	1803.056955	886.457324	712.702990	1807.995558	815.719485	586.629927	1852.659464	772.937715	521.977484	1777.278066	741.596043	524.939120	1840.790033	845.909357	513.523936	1858.002424	775.538802	375.958920	1781.932473	748.669147	368.191659	1850.665331	847.950757	389.669567	1824.739456	824.156582	256.458491	1824.613810	777.797937	270.078093	
904	3.616000	1705.936193	656.339407	693.398356	1480.505466	877.443910	618.749976	1543.294668	825.307012	612.527132	1456.588984	783.729076	615.949512	1547.201395	1136.644483	800.304294	1714.715838	1069.564223	731.757164	1760.557771	960.336030	622.444153	1830.088139	930.990040	656.972528	1802.912593	886.508346	712.198734	1807.527184	815.902591	586.017728	1852.035761	773.161888	521.183610	1776.629329	741.741240	524.359345	1839.993477	846.118093	512.656748	1856.908798	775.731087	375.173211	1780.795217	748.855293	367.548406	1849.594831	848.137081	388.853759	1823.248982	824.297965	255.691111	1823.215842	777.947009	269.395351	
905	3.620000	1705.931664	656.334102	693.394780	1480.450392	877.400756	618.784547	1543.256760	825.279593	612.526774	1456.546068	783.705175	615.974545	1547.194481	1136.634111	800.294995	1714.650512	1069.548249	731.609583	1760.242701	960.449338	622.116745	1829.803705	931.091249	656.428456	1802.771807	886.569798	711.704671	1807.056189	816.098154	585.374892	1851.363897	773.362398	520.405173	1775.993109	741.884828	523.803711	1839.138389	846.345663	511.719048	1855.805993	775.931776	374.339670	1779.677033	748.991191	366.894901	1848.543644	848.325491	388.056874	1821.718931	824.451506	254.910052	1821.684361	778.086782	268.654466	
906	3.624000	1705.942988	656.333506	693.384051	1480.436802	877.400458	618.808389	1543.214798	825.280905	612.519503	1456.507325	783.702970	616.012335	1547.209263	1136.626959	800.269783	1714.573026	1069.532514	731.469691	1759.922981	960.571229	621.796727	1829.527140	931.190193	655.907869	1802.626491	886.634529	711.206794	1806.569576	816.283345	584.692359	1850.708485	773.578167	519.645452	1775.353789	742.058516	523.237944	1838.398218	846.514285	510.953248	1854.717970	776.141763	373.531520	1778.556824	749.111295	366.270751	1847.524166	848.527789	387.268990	1820.193291	824.624598	254.160702	1820.240736	778.260589	267.948627	
907	3.628000	1705.939531	656.327367	693.370700	1480.443239	877.397001	618.806839	1543.185472	825.295210	612.516880	1456.492424	783.686996	616.041303	1547.253847	1136.640072	800.254166	1714.494944	1069.532752	731.305838	1759.585619	960.697114	621.464372	1829.252839	931.295395	655.387580	1802.493215	886.693835	710.699737	1806.088567	816.474915	584.021688	1850.063562	773.796916	518.862724	1774.720669	742.259383	522.652984	1837.697268	846.678138	510.237753	1853.664041	776.256800	372.698039	1777.501822	749.404430	365.332007	1846.489310	848.740458	386.468709	1818.700314	824.810266	253.426492	1818.897724	778.422415	267.266333	
908	3.632000	1705.931664	656.331420	693.367124	1480.420113	877.384245	618.797898	1543.172598	825.306058	612.498999	1456.471086	783.668518	616.061926	1547.277451	1136.655450	800.237715	1714.422345	1069.531441	731.165290	1759.247661	960.825086	621.132851	1828.971982	931.397796	654.848099	1802.352309	886.762321	710.169435	1805.603981	816.672146	583.410263	1849.423170	774.025440	518.096089	1774.115920	742.457330	522.094667	1837.027311	846.882939	509.549737	1852.586269	776.236296	371.800125	1776.564956	749.927104	363.978624	1845.438838	848.963678	385.670453	1817.212343	824.985325	252.685905	1817.497253	778.584361	266.552657	
